<?xml version="1.0" encoding="UTF-8"?>
<!DOCTYPE svg PUBLIC "-//W3C//DTD SVG 1.1//EN" "http://www.w3.org/Graphics/SVG/1.1/DTD/svg11.dtd">
<!-- Creator: CorelDRAW Home & Student X7 -->
<svg xmlns="http://www.w3.org/2000/svg" xml:space="preserve" width="0.536in" height="0.395in" version="1.1" style="shape-rendering:geometricPrecision; text-rendering:geometricPrecision; image-rendering:optimizeQuality; fill-rule:evenodd; clip-rule:evenodd"
viewBox="0 0 536 395"
 xmlns:xlink="http://www.w3.org/1999/xlink">
 <defs>
  <style type="text/css">
   <![CDATA[
    .fil0 {fill:black}
    .fil2 {fill:#E434AA}
    .fil1 {fill:white}
   ]]>
  </style>
 </defs>
 <g id="Layer_x0020_1">
  <metadata id="CorelCorpID_0Corel-Layer"/>
  <g id="_225724320">
   <path class="fil0" d="M267 201c-12,3 -29,3 -41,-1 -6,-2 -15,-7 -18,-13 -7,-11 2,-25 7,-31 4,-5 12,-11 18,-15 30,-16 73,-11 91,21 7,14 9,37 11,53 1,14 3,41 3,55 0,0 -6,2 -13,6 -6,3 -16,6 -23,7 -5,1 -29,3 -33,2 0,-6 1,-24 1,-30 0,-14 0,-22 -1,-37 -2,-15 -2,-17 -2,-17z"/>
   <path class="fil1" d="M246 159c-1,-7 7,-7 8,-2 1,5 -7,7 -8,2zm-20 -3c-1,-6 7,-7 8,-2 1,5 -7,6 -8,2zm47 43c1,7 2,8 3,17 1,14 1,24 0,39 0,6 -1,13 0,19 4,2 22,-1 27,-2 16,-3 24,7 27,5 2,-1 1,-10 1,-21 -1,-14 -2,-28 -3,-42 -2,-16 -3,-35 -11,-49 -8,-14 -18,-23 -33,-26 -18,-4 -34,0 -49,8 -6,3 -12,8 -17,13 -4,6 -8,16 -4,23 3,6 13,10 19,11 11,4 27,1 39,-2 2,-1 10,-4 11,-4 4,-1 7,4 1,7 -4,1 -7,3 -11,4z"/>
   <path class="fil0" d="M246 159c1,5 9,3 8,-2 -1,-5 -9,-5 -8,2z"/>
   <path class="fil0" d="M226 156c1,4 9,3 8,-2 -1,-5 -9,-4 -8,2z"/>
  </g>
  <path class="fil2" d="M243 334c-1,-1 -8,-5 -10,-6 -20,-12 -41,-23 -60,-35l-10 -6 0 -1 210 0 0 2c-1,1 -3,2 -5,3 -1,1 -3,2 -5,3l-30 17c-2,2 -38,23 -40,23 -1,-2 -6,-6 -10,-8 -9,-4 -20,-4 -29,0 -4,2 -9,5 -11,8zm-90 -81c1,-2 12,-20 14,-23 4,-8 8,-15 13,-23 17,-30 35,-61 52,-91 9,-15 18,-30 26,-45 9,1 11,1 20,0l105 181c-2,4 -6,5 -10,17l-210 0c-2,-8 -5,-12 -10,-16zm26 -155c17,-9 33,-19 50,-28l12 -7c1,-1 2,-2 2,-1 1,0 1,1 0,2 -3,5 -6,11 -9,16 -10,16 -19,33 -29,49 -9,16 -19,34 -28,50l-19 33c-3,5 -7,11 -10,16 -1,2 -8,16 -9,16l-1 0 0 -93c4,-1 7,-2 10,-4 9,-6 16,-17 16,-29 0,-5 -1,-7 -1,-10l16 -10zm193 20c0,15 11,29 26,33l0 93 -1 0c-1,0 -25,-44 -26,-46 -5,-7 -9,-15 -14,-22 -4,-8 -8,-16 -13,-23 -9,-15 -17,-31 -26,-46l-23 -40c-3,-4 -3,-4 -2,-5 1,0 8,4 10,5 3,2 7,4 10,6 7,4 13,8 20,12l30 17c2,1 3,2 5,3 2,1 4,2 5,3 0,1 -1,5 -1,10zm-137 -71l-80 46c-3,-1 -5,-4 -13,-8 -16,-6 -34,0 -43,15 -6,10 -6,22 -1,33 4,7 9,12 16,15 2,2 7,3 7,3l0 89c0,5 1,3 -3,5 -26,9 -31,43 -10,60 12,9 29,10 42,1 2,-2 3,-3 4,-4l40 23c7,4 14,7 20,11 4,2 18,10 21,12 -1,3 -2,4 -2,9 0,19 16,36 36,35 22,0 37,-20 33,-41 0,-1 -1,-3 -1,-4l10 -6c21,-12 43,-25 64,-37 2,-1 5,-3 6,-3 5,6 12,10 21,11 28,4 50,-27 34,-52 -3,-7 -9,-12 -17,-15 -5,-2 -4,2 -4,-12l0 -82c1,0 2,-1 4,-1 8,-3 15,-9 19,-17 10,-20 -2,-46 -26,-50 -6,-1 -13,0 -18,2 -9,4 -10,7 -13,8l-80 -46c1,-3 2,-5 2,-8 0,-3 0,-7 -1,-10 -6,-22 -31,-33 -50,-22 -9,4 -15,12 -18,22 -2,8 0,12 1,18z"/>
 </g>
</svg>
