<?xml version="1.0" encoding="UTF-8"?>
<svg xmlns="http://www.w3.org/2000/svg" xmlns:xlink="http://www.w3.org/1999/xlink" width="16px" height="16px" viewBox="0 0 16 16" version="1.1">
<g id="surface1">
<path style=" stroke:none;fill-rule:nonzero;fill:rgb(21.568627%,25.098039%,30.196078%);fill-opacity:1;" d="M 15.148438 3.011719 L 0.226562 3.011719 L 0.226562 12.96875 L 15.78125 12.96875 L 15.78125 3.011719 Z M 14.527344 3.632812 L 8.515625 9.644531 C 8.242188 9.917969 7.765625 9.917969 7.488281 9.644531 L 1.480469 3.632812 Z M 0.847656 3.882812 L 4.886719 7.921875 L 0.847656 11.960938 Z M 1.34375 12.34375 L 5.328125 8.359375 L 7.050781 10.082031 C 7.304688 10.335938 7.644531 10.476562 8.003906 10.476562 C 8.363281 10.476562 8.703125 10.335938 8.957031 10.082031 L 10.679688 8.359375 L 14.664062 12.34375 Z M 15.160156 11.960938 L 11.117188 7.921875 L 15.160156 3.878906 Z M 15.160156 11.960938 "/>
</g>
</svg>
